<?xml version="1.0" encoding="UTF-8" standalone="no"?>
<!-- Generator: Adobe Illustrator 19.0.0, SVG Export Plug-In . SVG Version: 6.00 Build 0)  -->

<svg
   xmlns:dc="http://purl.org/dc/elements/1.1/"
   xmlns:cc="http://creativecommons.org/ns#"
   xmlns:rdf="http://www.w3.org/1999/02/22-rdf-syntax-ns#"
   xmlns:svg="http://www.w3.org/2000/svg"
   xmlns="http://www.w3.org/2000/svg"
   xmlns:sodipodi="http://sodipodi.sourceforge.net/DTD/sodipodi-0.dtd"
   xmlns:inkscape="http://www.inkscape.org/namespaces/inkscape"
   version="1.1"
   id="Layer_1"
   x="0px"
   y="0px"
   viewBox="0 0 512 512"
   style="enable-background:new 0 0 512 512;"
   xml:space="preserve"
   sodipodi:docname="cross.svg"
   inkscape:version="0.92.5 (2060ec1f9f, 2020-04-08)"><metadata
   id="metadata43"><rdf:RDF><cc:Work
       rdf:about=""><dc:format>image/svg+xml</dc:format><dc:type
         rdf:resource="http://purl.org/dc/dcmitype/StillImage" /></cc:Work></rdf:RDF></metadata><defs
   id="defs41" /><sodipodi:namedview
   pagecolor="#ffffff"
   bordercolor="#666666"
   borderopacity="1"
   objecttolerance="10"
   gridtolerance="10"
   guidetolerance="10"
   inkscape:pageopacity="0"
   inkscape:pageshadow="2"
   inkscape:window-width="837"
   inkscape:window-height="480"
   id="namedview39"
   showgrid="false"
   inkscape:zoom="0.4609375"
   inkscape:cx="256"
   inkscape:cy="256"
   inkscape:window-x="72"
   inkscape:window-y="27"
   inkscape:window-maximized="0"
   inkscape:current-layer="Layer_1" />
<g
   id="g6"
   transform="matrix(0.90677966,0,0,0.9491102,23.864407,15.19728)"
   style="fill:#fa2511;fill-opacity:0.93385214">
	<g
   id="g4"
   style="fill:#fa2511;fill-opacity:0.93385214">
		<path
   d="M 498.344,407.68 348.16,255.787 500.053,103.894 C 508.587,95.36 512,85.12 512,74.88 512,64.64 508.587,54.4 500.053,47.573 l -35.84,-35.84 c -15.36,-15.36 -40.96,-15.36 -56.32,0 L 256,163.627 104.106,11.733 c -15.36,-15.36 -40.96,-15.36 -56.32,0 l -35.84,35.84 C 5.12,54.4 0,64.64 0,74.88 0,85.12 5.12,95.36 11.947,103.893 L 163.84,255.787 11.946,407.68 c -15.36,15.36 -15.36,40.96 0,56.32 l 35.84,35.84 c 15.36,15.36 40.96,15.36 56.32,0 L 255.999,347.947 407.891,499.84 c 6.827,6.827 17.067,11.947 27.307,11.947 10.24,0 20.48,-3.413 27.307,-11.947 L 498.345,464 c 6.827,-6.827 11.947,-17.067 11.947,-29.014 -10e-4,-10.24 -3.414,-20.48 -11.948,-27.306 z m -22.184,32.427 -35.84,35.84 c -3.413,3.413 -5.12,3.413 -8.534,0 l -163.84,-163.84 c -1.706,-3.413 -6.827,-5.12 -11.946,-5.12 -5.119,0 -8.534,1.707 -11.946,5.12 l -163.84,163.84 c -3.413,3.413 -5.12,3.413 -8.534,0 l -35.84,-35.84 c -1.706,-1.707 -1.706,-5.12 0,-8.534 l 163.84,-163.84 c 3.413,-3.413 5.12,-6.827 5.12,-11.946 0,-5.12 -1.707,-8.534 -5.12,-11.947 L 35.84,80 c -1.706,-1.706 -1.706,-3.413 -1.706,-5.12 0,-1.707 0,-3.413 1.706,-3.413 l 35.84,-35.84 c 3.413,-3.413 5.12,-3.413 8.534,0 l 163.84,163.84 c 6.827,6.827 17.067,6.827 23.893,0 l 163.84,-163.84 c 3.413,-3.413 5.12,-3.413 8.534,0 l 35.84,35.84 c 1.706,1.706 1.706,3.413 1.706,3.413 0,1.706 0,3.413 -1.707,3.413 l -163.84,163.84 c -6.827,6.827 -6.827,17.067 0,23.893 l 163.84,163.84 c 1.707,1.707 1.707,3.413 1.707,3.413 0,3.414 0,5.121 -1.707,6.828 z"
   id="path2"
   inkscape:connector-curvature="0"
   style="fill:#fa2511;fill-opacity:0.93385214" />
	</g>
</g>
<g
   id="g8">
</g>
<g
   id="g10">
</g>
<g
   id="g12">
</g>
<g
   id="g14">
</g>
<g
   id="g16">
</g>
<g
   id="g18">
</g>
<g
   id="g20">
</g>
<g
   id="g22">
</g>
<g
   id="g24">
</g>
<g
   id="g26">
</g>
<g
   id="g28">
</g>
<g
   id="g30">
</g>
<g
   id="g32">
</g>
<g
   id="g34">
</g>
<g
   id="g36">
</g>
</svg>