<?xml version="1.0" encoding="UTF-8"?>
<svg xmlns="http://www.w3.org/2000/svg" xmlns:xlink="http://www.w3.org/1999/xlink" viewBox="0 0 96 96" width="48px" height="48px">
<g id="surface16478819">
<path style=" stroke:none;fill-rule:nonzero;fill:rgb(0%,0%,0%);fill-opacity:1;" d="M 2.878906 96 C 1.289062 96 0 94.710938 0 93.121094 L 0 2.878906 C 0 1.289062 1.289062 0 2.878906 0 L 93.121094 0 C 94.710938 0 96 1.289062 96 2.878906 L 96 93.121094 C 96 94.710938 94.710938 96 93.121094 96 Z M 89.28125 92.160156 C 90.871094 92.160156 92.160156 90.871094 92.160156 89.28125 L 92.160156 6.71875 C 92.160156 5.128906 90.871094 3.839844 89.28125 3.839844 L 6.71875 3.839844 C 5.128906 3.839844 3.839844 5.128906 3.839844 6.71875 L 3.839844 89.28125 C 3.839844 90.871094 5.128906 92.160156 6.71875 92.160156 Z M 89.28125 92.160156 "/>
<path style=" stroke:none;fill-rule:nonzero;fill:rgb(0%,0%,0%);fill-opacity:1;" d="M 20.878906 26.007812 C 20.085938 25.996094 19.347656 26.414062 18.945312 27.097656 C 18.546875 27.785156 18.546875 28.632812 18.945312 29.316406 C 19.347656 30 20.085938 30.417969 20.878906 30.40625 L 75.121094 30.40625 C 75.914062 30.417969 76.652344 30 77.054688 29.316406 C 77.453125 28.632812 77.453125 27.785156 77.054688 27.097656 C 76.652344 26.414062 75.914062 25.996094 75.121094 26.007812 Z M 20.878906 45.800781 C 20.085938 45.789062 19.347656 46.207031 18.945312 46.890625 C 18.546875 47.578125 18.546875 48.421875 18.945312 49.109375 C 19.347656 49.792969 20.085938 50.210938 20.878906 50.199219 L 75.121094 50.199219 C 75.914062 50.210938 76.652344 49.792969 77.054688 49.109375 C 77.453125 48.421875 77.453125 47.578125 77.054688 46.890625 C 76.652344 46.207031 75.914062 45.789062 75.121094 45.800781 Z M 20.878906 65.59375 C 20.085938 65.582031 19.347656 66 18.945312 66.683594 C 18.546875 67.367188 18.546875 68.214844 18.945312 68.902344 C 19.347656 69.585938 20.085938 70.003906 20.878906 69.992188 L 75.121094 69.992188 C 75.914062 70.003906 76.652344 69.585938 77.054688 68.902344 C 77.453125 68.214844 77.453125 67.367188 77.054688 66.683594 C 76.652344 66 75.914062 65.582031 75.121094 65.59375 Z M 20.878906 65.59375 "/>
</g>
</svg>
